<svg width="281" height="125" viewBox="0 0 208.6 92.7" xmlns="http://www.w3.org/2000/svg">
  <path d="M131.6 63.3l-32-32V37L126 63.3h5.6zm-8 0l-24-24V45l18.2 18.2c.1.1 5.8.1 5.8.1zm-8.2 0L99.6 47.5v5.6l10.1 10.1 5.7.1zm15.5-41.4v-5.6l-22.1 22.1 2.8 2.8 19.3-19.3zM139 0l-34.3 34.3 2.8 2.8L139 5.6V0zm-8.1 0l-30.2 30.2 2.8 2.8 27.4-27.4V0zM0 42.9C0 30.6 8.9 21 21.5 21s21.6 9.4 21.7 21.7-8.9 21.8-21.6 21.9S0 55.2 0 42.9m37.2-.2c0-9.1-6.2-16.5-15.7-16.5S5.9 33.7 6 42.8c0 9.1 6.2 16.5 15.7 16.5s15.6-7.5 15.5-16.6m8.5 0c0-12.3 8.9-21.8 21.5-21.9s21.6 9.4 21.7 21.7c0 12.3-8.9 21.8-21.5 21.9-12.7.1-21.7-9.4-21.7-21.7m37.2-.1c0-9.1-6.2-16.5-15.7-16.5s-15.6 7.5-15.6 16.6 6.2 16.5 15.7 16.5 15.6-7.5 15.6-16.6m50.5-20.8h5.6V58h20.6v5.3h-26.2V21.8zm48.4 7.3h-.1l-13.9 34.2h-6.3l17.4-41.5h6.1l17 41.5h-6.3l-13.9-34.2zM92 63.3h5.7V21.8H92v41.5z" fill="#9193a7"/><path d="M93.8 81.8h-.5c-.7 0-1.3-.5-1.3-1.2s.6-1.3 1.3-1.3h.5v-1c0-1.5.4-2.6 1.1-3.3s1.7-1.1 3-1.1c.5 0 1 0 1.5.1.7.1 1.2.8 1 1.5a1.3 1.3 0 0 1-1.3 1.1h-.6c-1.2 0-1.8.6-1.8 2v.7h2.4c.7 0 1.3.5 1.3 1.2h0c0 .7-.6 1.3-1.3 1.3h-2.3v9.3c0 .8-.7 1.5-1.6 1.5a1.54 1.54 0 0 1-1.5-1.5l.1-9.3zm7.7 4h0c0-3.9 3-7 7.1-7s7.1 3.1 7.1 6.9h0c0 3.8-3 6.9-7.1 6.9-4.1.1-7.1-3-7.1-6.8zm11.2 0h0c0-2.4-1.7-4.3-4.1-4.3s-4 1.9-4 4.2h0c0 2.3 1.7 4.3 4.1 4.3 2.4.1 4-1.9 4-4.2zm5.2-5.3a1.47 1.47 0 0 1 1.5-1.5h0a1.54 1.54 0 0 1 1.5 1.5v1.4c.7-1.7 2-2.9 3.4-2.9 1 0 1.5.6 1.5 1.5 0 .7-.5 1.4-1.2 1.5-2.2.4-3.7 2-3.7 5.2v3.9a1.54 1.54 0 0 1-1.5 1.5 1.54 1.54 0 0 1-1.5-1.5V80.5zm18.7 3.2h0c0-5 3.8-9.2 9.1-9.2 2.6 0 4.4.6 6 1.8.4.3.6.8.6 1.3a1.54 1.54 0 0 1-1.5 1.5c-.3 0-.7-.1-1-.4a6.9 6.9 0 0 0-4.3-1.4c-3.3 0-5.7 2.8-5.7 6.2h0c0 3.6 2.4 6.3 6 6.3 1.5 0 3-.4 4.3-1.3v-3.3h-3.5c-.7 0-1.4-.6-1.4-1.3h0c0-.8.6-1.4 1.4-1.4h4.9c.8 0 1.6.7 1.6 1.5v4.8c0 .8-.4 1.6-1.1 2-1.9 1.3-4.1 1.9-6.3 1.9-5.4 0-9.1-3.9-9.1-9zm18.8 2.1h0c0-3.9 3-7 7.1-7s7.1 3.1 7.1 6.9h0c0 3.8-3 6.9-7.1 6.9-4.1.1-7.1-3-7.1-6.8zm11.1 0h0c0-2.4-1.7-4.3-4.1-4.3s-4 1.9-4 4.2h0c0 2.3 1.7 4.3 4.1 4.3 2.4.1 4-1.9 4-4.2zm5.3 0h0c0-3.9 3-7 7.1-7s7.1 3.1 7.1 6.9h0c0 3.8-3 6.9-7.1 6.9-4.1.1-7.1-3-7.1-6.8zm11.1 0h0c0-2.4-1.7-4.3-4.1-4.3s-4 1.9-4 4.2h0c0 2.3 1.7 4.3 4.1 4.3 2.5.1 4-1.9 4-4.2zm19.1 5.3c0 .8-.7 1.5-1.6 1.5a1.54 1.54 0 0 1-1.5-1.5v-.8c-1 1.4-2.4 2.5-4.5 2.5-3.1 0-6.2-2.5-6.2-6.9h0c0-4.4 3-6.9 6.2-6.9 2.2 0 3.6 1.1 4.5 2.3v-5.8c0-.8.7-1.5 1.6-1.5a1.54 1.54 0 0 1 1.5 1.5v15.6zm-10.7-5.3h0c0 2.6 1.8 4.3 3.8 4.3s3.9-1.7 3.9-4.3h0c0-2.6-1.8-4.3-3.9-4.3s-3.8 1.6-3.8 4.3h0z" fill="#7cdb2b"/><path d="M205 74.6h-.6c-.1 0-.1-.1-.1-.1 0-.1.1-.1.1-.1h1.6c.1 0 .1.1.1.1 0 .1-.1.1-.1.1h-.6v1.9c0 .1-.1.1-.1.1-.1 0-.1-.1-.1-.1l-.2-1.9zm1.5-.1c0-.1.1-.1.1-.1h0c.1 0 .1 0 .1.1l.8 1.2.8-1.2.1-.1c.1 0 .1.1.1.1v2c0 .1-.1.1-.1.1-.1 0-.1-.1-.1-.1v-1.7l-.7 1.1-.1.1s-.1 0-.1-.1l-.7-1v1.7c0 .1-.1.1-.1.1-.1 0-.1-.1-.1-.1v-2.1z" fill="#9193a7"/>
</svg>
